<?xml version="1.0" standalone="no"?>
<!DOCTYPE svg PUBLIC "-//W3C//DTD SVG 20010904//EN"
 "http://www.w3.org/TR/2001/REC-SVG-20010904/DTD/svg10.dtd">
<svg version="1.0" xmlns="http://www.w3.org/2000/svg"
 width="300.000000pt" height="158.000000pt" viewBox="0 0 300.000000 158.000000"
 preserveAspectRatio="xMidYMid meet">
<metadata>
Created by potrace 1.10, written by Peter Selinger 2001-2011
</metadata>
<g transform="translate(0.000000,158.000000) scale(0.100000,-0.100000)"
fill="#000000" stroke="none">
<path d="M2655 1425 c-91 -48 -86 -163 10 -195 43 -14 64 -8 99 29 39 41 39
103 0 142 -37 36 -71 43 -109 24z m65 -25 c5 0 18 -10 30 -22 62 -66 -31 -164
-103 -108 -47 37 -34 112 23 133 8 3 21 4 28 1 8 -2 18 -4 22 -4z"/>
<path d="M318 853 c-60 -58 -108 -112 -108 -119 0 -7 -8 -15 -19 -19 -23 -7
-161 -149 -161 -166 0 -19 291 -309 310 -309 9 0 29 13 45 30 37 39 33 46 -95
174 -54 55 -96 104 -93 109 3 5 55 -41 116 -102 61 -61 118 -111 128 -111 9 0
66 49 125 110 60 61 112 110 116 110 21 0 -1 -29 -103 -130 -118 -119 -121
-126 -74 -170 19 -18 29 -21 45 -14 31 14 300 286 300 303 0 19 -149 171 -168
171 -6 0 -12 6 -12 13 0 7 -21 35 -47 62 -27 27 -47 53 -45 58 1 5 -1 6 -5 4
-5 -3 -33 19 -63 49 -30 30 -62 54 -70 54 -8 0 -63 -48 -122 -107z m231 -17
l103 -103 -27 -28 -28 -27 -78 78 -79 79 -79 -79 -79 -79 -26 29 -25 29 102
103 c56 56 104 102 107 102 3 0 52 -47 109 -104z m-44 -126 l61 -61 -63 -63
-63 -63 -63 63 -63 63 60 61 c34 33 63 60 66 60 2 0 32 -27 65 -60z m-185
-125 c62 -63 116 -115 119 -115 3 0 59 53 123 117 l118 118 77 -78 78 -77
-147 -147 -148 -148 -27 28 -28 28 121 119 121 119 -24 23 -24 23 -120 -121
-119 -121 -120 121 -119 121 -23 -23 -23 -22 118 -118 c64 -64 117 -122 117
-127 0 -6 -12 -18 -26 -29 l-26 -19 -146 147 -147 146 75 75 c41 41 77 75 80
75 3 0 57 -52 120 -115z"/>
<path d="M1037 920 c-143 -7 -137 5 -137 -282 0 -262 6 -285 82 -335 41 -28
42 -28 247 -31 113 -1 216 0 228 3 26 6 37 36 34 90 -5 77 2 74 -224 77 l-202
3 -3 40 -3 40 168 -3 c92 -2 178 0 190 3 21 5 23 11 23 69 0 42 -5 67 -14 75
-10 8 -66 11 -189 9 l-174 -3 1 40 1 40 199 3 c127 1 204 6 213 13 17 14 17
118 0 139 -10 12 -42 15 -177 15 -91 0 -209 -2 -263 -5z m433 -75 l0 -55 -220
0 -220 0 0 -178 c0 -125 4 -182 12 -190 9 -9 72 -12 220 -12 l208 0 0 -56 0
-55 -217 3 c-242 3 -260 7 -300 67 -22 33 -23 41 -23 266 0 181 3 235 13 244
9 7 100 12 263 14 137 1 252 3 257 5 4 1 7 -23 7 -53z m-50 -247 l0 -53 -170
0 -170 0 0 53 0 52 170 0 170 0 0 -52z"/>
<path d="M1652 908 c-91 -35 -138 -112 -130 -212 5 -63 37 -112 99 -153 39
-26 44 -26 183 -24 181 3 198 -1 194 -43 l-3 -31 -221 -3 c-161 -2 -225 -6
-232 -15 -21 -25 -18 -119 4 -142 15 -14 45 -16 243 -14 193 2 231 5 261 20
144 72 160 265 29 354 -44 30 -44 30 -212 33 -166 4 -168 4 -179 28 -22 47 -5
51 204 53 119 1 197 6 205 13 18 14 17 122 0 137 -9 7 -83 12 -207 13 -162 3
-200 0 -238 -14z m438 -63 l0 -55 -198 0 c-187 0 -200 -1 -217 -20 -26 -29
-24 -79 4 -102 20 -16 43 -18 175 -18 172 0 215 -12 257 -71 34 -49 38 -140 7
-193 -43 -74 -70 -81 -335 -84 l-233 -3 0 55 0 56 223 0 c252 0 261 2 261 64
0 66 -13 70 -209 76 -156 4 -176 7 -202 26 -51 38 -73 81 -73 144 0 63 22 106
73 144 26 19 46 21 240 26 117 3 215 7 220 8 4 1 7 -23 7 -53z"/>
<path d="M2435 920 c-96 -4 -127 -9 -150 -24 -115 -74 -138 -214 -51 -310 55
-61 80 -67 248 -67 97 1 156 -3 165 -10 7 -6 13 -24 13 -40 0 -33 27 -30 -254
-29 -214 1 -216 0 -216 -91 0 -47 4 -60 19 -68 11 -6 109 -10 235 -11 243 0
276 7 333 67 41 45 56 92 51 163 -5 67 -34 114 -95 152 -35 21 -52 23 -208 28
l-170 5 -3 32 c-3 27 0 32 25 37 15 3 103 5 194 4 152 -3 169 -1 188 16 16 14
21 31 21 66 0 76 -11 83 -126 84 -55 1 -153 -1 -219 -4z m315 -75 l0 -55 -193
0 c-222 0 -237 -4 -237 -69 0 -62 11 -65 205 -71 169 -5 172 -5 208 -33 49
-38 71 -81 70 -142 0 -85 -45 -144 -124 -165 -22 -6 -127 -9 -250 -8 l-211 3
-2 53 -1 52 227 0 c223 0 227 0 242 22 23 32 20 65 -9 93 -24 24 -27 25 -185
25 -181 0 -200 5 -247 67 -24 31 -28 46 -28 103 0 57 4 72 28 103 45 60 53 61
282 67 116 3 213 7 218 8 4 1 7 -23 7 -53z"/>
<path d="M1337 237 c-23 -18 -39 -21 -95 -19 -40 2 -73 9 -83 18 -22 20 -73
18 -92 -4 -19 -21 -22 -83 -6 -113 8 -16 20 -19 70 -18 45 2 64 -2 79 -16 18
-16 22 -17 38 -3 25 22 121 24 136 2 12 -15 16 -15 59 10 53 31 64 54 45 93
-10 21 -21 29 -48 31 -19 2 -44 12 -55 22 -19 17 -21 17 -48 -3z m33 -17 c0
-5 -4 -10 -10 -10 -5 0 -10 5 -10 10 0 6 5 10 10 10 6 0 10 -4 10 -10z m-220
-10 c0 -6 -11 -8 -25 -4 -19 5 -25 2 -25 -10 0 -11 9 -16 26 -16 15 0 23 -4
18 -11 -3 -6 -15 -9 -25 -6 -12 3 -19 0 -19 -9 0 -8 10 -14 25 -14 14 0 25 -4
25 -10 0 -5 -16 -10 -35 -10 l-35 0 0 50 0 50 35 0 c19 0 35 -5 35 -10z m90
-67 c0 -36 -4 -52 -11 -48 -6 4 -8 13 -5 21 4 11 -1 13 -19 8 -20 -5 -27 -1
-36 20 -16 33 1 55 42 54 28 -1 29 -2 29 -55z m40 27 c0 -20 5 -30 15 -30 10
0 15 10 15 30 0 17 5 30 10 30 6 0 10 -17 10 -38 0 -33 -3 -38 -22 -37 -13 0
-29 4 -35 8 -15 10 -17 67 -3 67 6 0 10 -13 10 -30z m90 -10 c0 -22 -4 -40
-10 -40 -5 0 -10 18 -10 40 0 22 5 40 10 40 6 0 10 -18 10 -40z m93 31 c13 -2
7 -48 -8 -61 -8 -7 -22 -10 -30 -6 -10 4 -15 -1 -15 -15 0 -11 -4 -17 -10 -14
-5 3 -10 28 -10 55 l0 48 33 -2 c17 -2 35 -4 40 -5z"/>
<path d="M1182 163 c5 -26 38 -29 38 -4 0 15 -6 21 -21 21 -14 0 -19 -5 -17
-17z"/>
<path d="M1415 170 c-8 -13 3 -30 20 -30 14 0 27 24 18 34 -10 9 -31 7 -38 -4z"/>
<path d="M2375 240 c-19 -22 -78 -21 -113 1 -19 12 -26 12 -50 -1 -21 -12 -28
-26 -33 -60 -10 -71 3 -79 123 -78 54 1 101 5 104 10 3 5 11 5 17 -1 7 -5 49
-8 95 -7 45 1 85 0 88 -3 8 -8 98 0 111 10 7 6 13 6 17 1 11 -18 55 -20 70 -3
50 56 15 118 -66 115 -25 -1 -51 -5 -57 -8 -6 -4 -18 -3 -27 2 -9 5 -32 6 -53
2 -56 -10 -128 -2 -158 17 -36 24 -49 24 -68 3z m45 -20 c0 -5 -5 -10 -11 -10
-5 0 -7 -5 -3 -12 5 -8 10 -7 18 4 10 14 13 14 26 0 10 -12 11 -17 2 -20 -19
-6 -15 -42 5 -42 12 0 14 -3 6 -11 -16 -16 -33 -2 -33 27 0 15 -6 24 -15 24
-10 0 -15 -10 -15 -30 0 -16 -4 -30 -9 -30 -13 0 -20 72 -9 93 9 18 38 24 38
7z m-150 -11 c0 -6 -9 -9 -20 -6 -30 8 -35 -12 -6 -23 48 -18 23 -70 -25 -55
-29 9 -23 26 6 19 16 -4 25 -2 25 5 0 6 -11 16 -25 21 -24 9 -32 29 -18 43 11
11 63 8 63 -4z m78 -21 c28 -28 1 -75 -37 -63 -11 3 -23 15 -26 26 -12 38 35
65 63 37z m147 -15 l7 -28 10 28 c12 34 26 35 34 2 7 -28 24 -24 24 6 0 10 5
19 10 19 13 0 13 -6 -2 -47 -14 -37 -29 -38 -39 -2 l-6 24 -11 -27 c-14 -34
-28 -36 -36 -4 -3 13 -9 31 -12 40 -3 9 -2 16 4 16 5 0 13 -12 17 -27z m158
20 c3 -5 7 -21 8 -38 4 -27 1 -30 -26 -30 -39 0 -43 36 -5 46 25 7 25 7 -3 8
-16 1 -26 5 -22 11 7 12 42 13 48 3z m77 -3 c0 -4 -7 -10 -15 -14 -8 -3 -15
-17 -15 -31 0 -14 -4 -25 -10 -25 -5 0 -10 17 -10 39 0 34 3 39 25 39 14 0 25
-4 25 -8z m70 -9 c15 -30 13 -34 -20 -29 -16 3 -30 1 -30 -4 0 -4 12 -8 27 -8
21 0 24 -3 15 -12 -16 -16 -62 6 -62 30 0 41 51 57 70 23z"/>
<path d="M2302 163 c5 -26 38 -29 38 -4 0 15 -6 21 -21 21 -14 0 -19 -5 -17
-17z"/>
<path d="M2615 150 c-3 -5 3 -10 14 -10 12 0 21 5 21 10 0 6 -6 10 -14 10 -8
0 -18 -4 -21 -10z"/>
<path d="M2758 173 c6 -2 18 -2 25 0 6 3 1 5 -13 5 -14 0 -19 -2 -12 -5z"/>
<path d="M1553 228 c-14 -16 -20 -35 -19 -60 2 -45 21 -67 59 -70 16 -1 33 -8
39 -15 14 -17 28 -16 50 4 16 14 46 16 223 16 227 -1 236 1 232 60 -4 55 -6
56 -163 56 -99 0 -150 4 -160 12 -11 9 -21 9 -37 1 -42 -20 -112 -21 -138 -1
-32 25 -61 24 -86 -3z m83 -26 c12 -9 25 -26 29 -37 7 -18 8 -18 17 8 5 15 14
27 19 27 9 0 -17 -75 -33 -97 -11 -13 -41 -6 -32 8 3 5 10 7 15 4 5 -4 9 1 9
10 0 21 -28 75 -39 75 -5 0 -16 3 -25 6 -26 10 -18 -16 9 -28 14 -6 25 -17 25
-23 0 -22 -29 -38 -55 -31 -36 9 -31 27 5 20 36 -8 40 8 5 24 -24 11 -32 31
-18 45 12 13 48 7 69 -11z m180 -2 c8 0 14 -4 14 -10 0 -5 -7 -10 -15 -10 -8
0 -15 -9 -15 -20 0 -12 7 -20 17 -20 12 0 14 -3 6 -11 -16 -16 -30 -4 -36 33
-5 34 3 72 11 50 2 -7 10 -12 18 -12z m-51 -10 c3 -6 -4 -10 -17 -11 l-23 0
23 -10 c31 -12 26 -44 -7 -44 -14 0 -26 5 -28 12 -3 7 4 10 19 7 l23 -5 -22
16 c-12 9 -19 23 -16 31 6 16 39 19 48 4z m135 -5 c16 -20 2 -38 -26 -32 -13
2 -21 0 -18 -4 3 -5 15 -9 27 -9 15 0 18 -3 10 -11 -14 -14 -49 -3 -57 17 -15
39 37 72 64 39z m138 2 c14 -10 16 -67 2 -67 -5 0 -10 14 -10 31 0 24 -4 30
-17 27 -11 -2 -19 -14 -21 -31 -4 -35 -21 -35 -19 0 1 19 -3 28 -15 31 -14 3
-18 -3 -18 -27 0 -17 -4 -31 -10 -31 -5 0 -10 17 -10 39 l0 38 53 -1 c28 0 58
-5 65 -9z m78 1 c5 -8 0 -9 -14 -6 -28 8 -29 -8 -2 -17 11 -3 20 -10 20 -14 0
-15 -30 -33 -45 -27 -24 9 -17 25 8 19 22 -6 22 -6 -2 14 -14 11 -21 25 -17
31 9 15 43 15 52 0z"/>
<path d="M1858 173 c6 -2 18 -2 25 0 6 3 1 5 -13 5 -14 0 -19 -2 -12 -5z"/>
</g>
</svg>
