<?xml version="1.0" standalone="no"?>
<!DOCTYPE svg PUBLIC "-//W3C//DTD SVG 20010904//EN"
 "http://www.w3.org/TR/2001/REC-SVG-20010904/DTD/svg10.dtd">
<svg version="1.0" xmlns="http://www.w3.org/2000/svg"
 width="1350.000000pt" height="714.000000pt" viewBox="0 0 1350.000000 714.000000"
 preserveAspectRatio="xMidYMid meet">
<metadata>
Created by potrace 1.10, written by Peter Selinger 2001-2011
</metadata>
<g transform="translate(0.000000,714.000000) scale(0.100000,-0.100000)"
fill="#000000" stroke="none">
<path d="M0 3570 l0 -3570 6750 0 6750 0 0 3570 0 3570 -6750 0 -6750 0 0
-3570z m12251 2738 c68 -34 132 -96 167 -163 24 -45 27 -61 27 -150 0 -89 -3
-106 -27 -150 -35 -68 -97 -128 -166 -162 -50 -25 -68 -28 -147 -27 -70 0
-100 6 -136 22 -70 33 -134 95 -168 164 -28 55 -31 70 -31 152 0 70 5 101 21
135 41 92 117 160 217 198 61 22 177 13 243 -19z m-9816 -2550 c245 -242 445
-447 445 -454 0 -17 -185 -204 -202 -204 -7 0 -164 151 -348 335 -262 262
-340 335 -360 335 -20 0 -98 -73 -360 -335 -184 -184 -340 -335 -346 -335 -15
0 -208 199 -200 208 3 4 205 206 449 449 252 253 450 443 460 443 10 0 206
-187 462 -442z m4143 260 c9 -9 12 -74 12 -230 0 -205 -1 -218 -19 -228 -13
-7 -332 -10 -963 -10 -721 0 -947 -3 -956 -12 -9 -9 -12 -197 -12 -786 0 -763
0 -775 21 -816 11 -23 37 -53 56 -66 l37 -25 905 -5 c498 -3 912 -9 919 -13
19 -13 17 -440 -2 -456 -10 -9 -246 -12 -923 -11 -864 0 -912 1 -985 20 -127
32 -241 95 -323 179 -92 94 -159 227 -176 351 -5 37 -8 472 -7 1010 3 1053 -2
970 73 1041 75 72 -4 68 1226 68 847 1 1108 -2 1117 -11z m2796 -4 c3 -9 6
-114 6 -234 0 -189 -2 -219 -16 -224 -9 -3 -395 -6 -859 -6 -905 0 -884 1
-954 -51 -50 -37 -90 -102 -107 -176 -14 -58 -14 -79 -4 -138 24 -134 82 -204
199 -239 48 -14 134 -16 682 -16 716 0 713 0 883 -85 245 -121 388 -327 417
-599 42 -382 -130 -684 -469 -826 -143 -61 -120 -59 -1181 -60 -534 -1 -975 2
-981 5 -16 10 -13 450 3 464 10 7 298 11 988 13 l974 3 41 22 c57 30 99 75
125 131 32 68 32 217 1 285 -29 65 -98 129 -164 152 -49 18 -97 20 -723 25
-667 5 -670 6 -740 29 -135 45 -223 98 -321 196 -79 77 -98 103 -137 185 -62
128 -81 215 -81 370 0 192 30 302 119 441 91 142 237 255 394 306 119 39 162
40 1042 42 773 1 857 -1 863 -15z m2984 -21 c14 -60 8 -409 -7 -427 -12 -14
-114 -16 -875 -18 -861 -3 -861 -3 -901 -25 -52 -28 -98 -73 -126 -126 -20
-36 -23 -57 -24 -152 0 -100 2 -114 27 -160 33 -63 69 -97 133 -127 l50 -23
670 -6 c747 -6 716 -3 872 -78 285 -137 433 -379 433 -706 -1 -360 -170 -612
-495 -734 -137 -51 -126 -51 -1163 -51 -901 0 -968 1 -979 17 -10 12 -13 73
-13 219 0 177 2 204 18 223 l17 21 975 2 975 3 46 27 c93 56 131 123 137 243
6 119 -15 183 -81 250 -94 93 -55 88 -822 95 -644 6 -672 7 -735 27 -354 114
-549 380 -550 748 -1 366 185 634 520 752 107 38 164 40 1037 42 l852 1 9 -37z
m-10113 -802 c140 -140 255 -260 255 -267 0 -16 -516 -534 -531 -534 -14 0
-528 520 -529 535 0 20 514 525 532 523 10 -2 133 -117 273 -257z m4123 -487
c2 -178 0 -223 -11 -233 -20 -16 -1483 -17 -1503 0 -19 16 -21 428 -2 447 9 9
187 12 763 10 l750 -3 3 -221z m-227 -1694 c25 -14 25 -57 -1 -65 -23 -7 -60
10 -60 30 0 13 26 45 36 45 3 0 14 -5 25 -10z m4734 -30 c0 -22 -5 -25 -40
-28 -48 -4 -65 -17 -65 -48 0 -17 7 -25 25 -29 14 -3 36 -7 50 -10 40 -9 63
10 67 53 3 34 6 37 33 37 26 0 30 -4 33 -30 5 -39 19 -55 49 -55 13 0 33 -5
44 -11 16 -8 18 -13 8 -25 -6 -8 -22 -14 -36 -14 -53 0 -63 -15 -63 -93 0 -85
11 -105 60 -109 28 -2 36 -8 38 -25 7 -50 -104 -56 -145 -8 -20 23 -23 37 -23
115 0 48 -3 95 -6 104 -8 20 -106 23 -122 3 -6 -7 -13 -64 -14 -127 -2 -91 -6
-115 -19 -123 -9 -6 -24 -7 -33 -4 -14 5 -16 24 -16 125 0 114 -1 119 -25 142
l-26 24 26 23 c15 15 25 35 25 52 0 18 11 41 29 60 28 30 34 32 88 29 54 -3
58 -5 58 -28z m-5721 -6 c12 -11 13 -20 6 -34 -9 -17 -24 -20 -118 -22 l-107
-3 -3 -52 c-4 -62 -4 -61 123 -65 78 -3 80 -4 80 -28 0 -25 -1 -25 -100 -30
l-100 -5 0 -55 0 -55 112 -3 c99 -2 114 -5 123 -22 7 -14 6 -23 -6 -34 -12
-13 -41 -16 -149 -16 -73 0 -140 3 -149 6 -14 5 -16 34 -16 214 0 157 3 210
13 213 6 3 71 6 144 6 107 1 135 -2 147 -15z m2128 -16 c33 -23 33 -26 11 -50
-20 -22 -32 -22 -69 -3 -44 23 -110 20 -128 -7 -10 -14 -12 -27 -6 -38 11 -20
82 -60 106 -60 21 0 74 -30 96 -55 13 -15 17 -34 15 -74 -2 -49 -5 -57 -40
-85 -36 -28 -44 -31 -115 -31 -63 0 -85 5 -122 25 -48 27 -62 58 -36 80 13 10
25 8 69 -14 93 -45 179 -26 164 36 -6 24 -53 58 -80 58 -25 0 -102 38 -123 61
-14 15 -19 35 -18 72 0 45 4 54 34 78 39 33 64 38 150 32 42 -3 75 -12 92 -25z
m2887 3 c32 -22 35 -32 17 -56 -13 -18 -17 -19 -48 -6 -18 8 -53 16 -78 18
-36 4 -49 1 -64 -15 -10 -12 -15 -28 -12 -39 6 -19 84 -63 111 -63 22 0 92
-47 105 -69 13 -26 12 -81 -3 -108 -7 -12 -25 -32 -41 -44 -25 -20 -41 -23
-110 -23 -71 0 -86 4 -123 27 -43 27 -52 48 -33 77 8 12 17 11 65 -13 65 -32
123 -35 155 -9 17 14 21 25 17 44 -6 24 -18 31 -132 76 -49 19 -73 39 -92 75
-27 53 19 130 89 148 49 12 149 1 177 -20z m-2068 -21 c4 -8 10 -27 13 -42 5
-23 12 -27 49 -30 34 -2 42 -7 42 -23 0 -16 -8 -21 -35 -23 -53 -5 -60 -16
-60 -97 0 -95 4 -105 45 -105 68 0 70 -55 2 -65 -93 -14 -127 31 -127 169 0
75 -2 87 -20 96 -11 6 -20 17 -20 25 0 8 9 19 20 25 13 7 20 21 20 38 0 16 6
34 12 40 16 16 49 12 59 -8z m-2650 -71 l41 -20 15 21 c9 13 23 20 36 18 22
-3 22 -6 25 -226 2 -199 1 -223 -14 -229 -34 -13 -49 11 -52 81 -3 67 -13 81
-41 54 -7 -8 -37 -13 -74 -12 -110 1 -164 64 -154 180 5 72 25 103 82 132 52
27 86 27 136 1z m283 5 c13 -12 16 -38 16 -119 0 -96 2 -105 22 -119 34 -24
81 -20 108 9 20 21 24 37 28 127 3 59 9 106 16 110 17 12 33 9 50 -8 13 -13
16 -42 16 -160 0 -144 0 -144 -25 -156 -19 -9 -29 -7 -50 6 -25 16 -29 16 -62
1 -65 -31 -143 -5 -171 58 -17 38 -17 253 1 260 22 10 35 7 51 -9z m410 10
c14 -5 16 -29 16 -164 0 -149 -1 -159 -20 -165 -10 -3 -29 -1 -40 5 -21 11
-21 17 -18 161 2 120 6 152 18 159 18 11 23 12 44 4z m191 -11 c15 -14 21 -15
49 -4 55 23 76 24 121 7 53 -21 91 -62 105 -117 16 -57 -11 -141 -54 -174 -44
-33 -114 -42 -161 -19 -45 21 -56 11 -54 -56 0 -25 0 -50 0 -57 -1 -18 -38
-26 -61 -13 -21 11 -21 17 -18 221 2 173 6 211 18 219 22 14 36 12 55 -7z
m1076 7 c10 -6 19 -18 19 -26 0 -9 6 -28 14 -42 8 -15 21 -45 29 -67 31 -83
32 -85 45 -77 11 8 41 76 62 146 21 66 71 101 87 60 5 -14 -1 -33 -42 -129 -7
-16 -21 -50 -30 -75 -9 -25 -23 -58 -30 -75 -7 -16 -21 -49 -31 -73 -9 -24
-31 -55 -48 -69 -25 -21 -37 -24 -74 -20 -54 6 -68 18 -53 46 8 15 21 21 45
21 47 0 70 29 61 77 -4 21 -12 47 -18 58 -6 11 -17 34 -23 50 -6 17 -26 65
-44 109 -25 63 -29 80 -18 87 17 11 25 11 49 -1z m483 -4 c39 -16 48 -28 40
-51 -5 -12 -14 -15 -33 -11 -90 19 -94 19 -108 0 -7 -10 -13 -21 -13 -26 0 -9
73 -48 92 -48 7 -1 26 -12 43 -25 41 -34 42 -93 2 -133 -25 -24 -34 -27 -96
-26 -76 0 -121 20 -121 54 0 27 11 31 56 15 49 -18 85 -19 108 -2 28 20 9 43
-54 67 -90 34 -121 78 -95 134 28 58 109 81 179 52z m586 -2 c32 -13 46 -27
66 -66 15 -30 24 -62 22 -81 l-3 -32 -113 -3 c-121 -3 -142 -13 -108 -51 25
-27 77 -34 127 -17 66 23 96 -13 42 -50 -22 -15 -45 -19 -102 -18 -73 1 -75 2
-112 41 -51 55 -65 109 -44 172 18 56 46 85 100 105 53 19 77 19 125 0z m230
-4 c20 -20 20 -20 64 1 53 26 101 20 142 -17 22 -21 31 -24 43 -15 38 26 92
51 113 51 37 0 90 -34 110 -71 14 -27 18 -56 18 -146 0 -102 -2 -112 -20 -118
-10 -3 -28 -1 -40 5 -18 10 -20 20 -20 106 0 107 -6 126 -49 143 -24 10 -34
10 -60 -3 -44 -23 -51 -44 -51 -144 0 -102 -11 -124 -55 -104 -24 11 -25 15
-25 107 0 108 -6 127 -49 144 -24 10 -34 10 -60 -3 -44 -23 -51 -44 -51 -145
0 -80 -2 -92 -20 -101 -14 -8 -26 -8 -40 0 -19 10 -20 21 -20 158 0 148 5 172
37 172 7 0 22 -9 33 -20z m750 4 c32 -13 40 -21 38 -38 -2 -17 -9 -21 -38 -18
-108 8 -105 9 -108 -19 -3 -22 3 -28 40 -43 105 -43 126 -66 114 -128 -10 -53
-45 -73 -127 -72 -72 1 -119 23 -119 55 0 27 11 29 72 12 69 -19 111 -12 106
19 -2 16 -20 29 -68 49 -35 15 -72 37 -82 49 -36 44 -15 102 47 134 39 20 74
20 125 0z m1061 -9 c105 -55 117 -208 21 -281 -29 -23 -45 -27 -102 -28 -97 0
-150 38 -169 123 -11 54 8 127 42 159 53 49 141 61 208 27z m646 13 c13 -18
37 -81 59 -153 10 -33 22 -64 26 -69 8 -10 34 44 49 99 21 77 42 125 60 130
46 15 61 -6 107 -155 11 -35 24 -66 29 -67 12 -4 57 103 70 167 7 33 32 60 55
60 36 0 34 -19 -16 -155 -8 -22 -26 -69 -39 -104 -27 -74 -44 -90 -82 -76 -26
10 -44 43 -64 120 -10 39 -41 98 -48 91 -3 -2 -20 -49 -39 -102 -38 -111 -51
-126 -99 -108 -15 6 -36 46 -55 104 -5 14 -18 50 -30 80 -34 87 -43 132 -28
141 19 12 34 11 45 -3z m748 -11 c52 -29 64 -65 64 -194 1 -93 -1 -103 -19
-113 -16 -8 -28 -8 -50 3 -21 11 -31 12 -40 3 -6 -6 -37 -11 -70 -11 -79 0
-110 27 -110 95 0 70 27 91 127 99 69 5 78 8 81 27 2 14 -6 27 -24 38 -28 19
-56 18 -112 -5 -28 -12 -34 -12 -42 1 -18 27 -10 41 33 60 56 26 113 25 162
-3z m226 -1 l11 -24 41 23 c45 26 67 23 67 -10 0 -26 -15 -41 -52 -50 -45 -12
-62 -49 -68 -155 -4 -81 -8 -95 -23 -98 -40 -8 -47 13 -47 154 0 73 4 144 10
158 12 33 47 34 61 2z m394 1 c47 -27 69 -66 69 -127 l1 -45 -104 -3 c-111 -3
-137 -12 -121 -42 20 -37 119 -48 157 -18 15 12 56 -8 50 -25 -2 -6 -16 -20
-31 -31 -40 -30 -150 -29 -193 2 -47 33 -73 82 -73 136 0 76 36 130 106 159
54 22 92 21 139 -6z"/>
<path d="M5331 789 c-40 -39 -43 -99 -7 -142 19 -24 31 -29 71 -29 41 -1 52 3
72 26 44 51 42 109 -4 152 -38 36 -93 33 -132 -7z"/>
<path d="M6405 814 c-44 -22 -55 -42 -55 -99 0 -68 26 -95 91 -95 52 0 83 25
93 75 17 84 -59 155 -129 119z"/>
<path d="M8362 809 c-23 -15 -32 -28 -30 -43 3 -19 10 -21 81 -24 65 -2 78 0
84 14 8 22 -48 74 -80 74 -12 0 -37 -10 -55 -21z"/>
<path d="M10371 791 c-26 -24 -31 -37 -31 -73 0 -65 32 -100 94 -100 54 -1 81
18 95 68 29 104 -81 177 -158 105z"/>
<path d="M11773 685 c-67 -47 20 -100 98 -59 24 12 30 21 27 42 -3 25 -7 27
-53 30 -33 2 -57 -3 -72 -13z"/>
<path d="M12407 812 c-28 -18 -43 -45 -32 -62 3 -5 39 -10 80 -10 41 0 77 5
80 10 11 18 -6 50 -35 65 -37 19 -58 19 -93 -3z"/>
</g>
</svg>
